#!OML:ASF H:\Punching\Project 1\Capture day 1\Session 1\female.ASF
:FULLY-SPECIFIED
:DEGREES
543
root -0.131132 14.6527 1.19314 12.2013 7.27578 -0.650138
lowerback -0.620629 2.73985 1.79181
upperback -6.44479 3.73509 -0.278571
thorax -6.20749 1.7598 -1.46517
lowerneck -7.93319 -5.63361 4.04662
upperneck 26.069 -10.2712 6.32568
head 9.73887 -3.66063 0.430696
rclavicle 3.97663e-014 1.39149e-015
rhumerus 25.5292 -0.782431 -68.384
rradius 97.9996
rwrist -42.3707
rhand -14.292 -32.2971
rfingers 7.12502
rthumb 11.8475 -61.942
lclavicle 3.97663e-014 1.39149e-015
lhumerus 20.69 -47.3047 80.6299
lradius 131.563
lwrist 14.3176
lhand -21.9566 10.7844
lfingers 7.12502
lthumb 4.45067 40.7177
rfemur 19.5382 -20.8707 8.61595
rtibia 2.8625e-014
rfoot -18.184 -21.4901
rtoes -2.72078
lfemur -49.256 -5.93006 -8.38014
ltibia 42.1981
lfoot -4.86475 0.33191
ltoes -9.34559
544
root -0.135116 14.6383 1.18325 11.9402 8.03775 -0.682123
lowerback -0.576772 3.15361 2.1817
upperback -6.42458 4.30044 -0.356759
thorax -6.15871 2.01926 -1.78763
lowerneck -7.6532 -6.15576 3.5193
upperneck 26.2375 -10.9366 6.46671
head 9.79364 -3.99567 0.503824
rclavicle -4.75903e-014 -1.27222e-014
rhumerus 28.2251 -1.6964 -67.448
rradius 90.7984
rwrist -39.6958
rhand -13.9884 -32.6418
rfingers 7.12502
rthumb 12.1403 -62.2696
lclavicle -4.75903e-014 -1.27222e-014
lhumerus 20.532 -47.467 80.5216
lradius 131.137
lwrist 14.0386
lhand -21.7629 10.7364
lfingers 7.12502
lthumb 4.63775 40.6657
rfemur 20.0948 -21.513 8.54461
rtibia -2.8625e-014
rfoot -18.341 -21.285
rtoes -2.44388
lfemur -49.3237 -6.32024 -8.40144
ltibia 42.2714
lfoot -4.79013 -0.015739
ltoes -9.31305
545
root -0.138505 14.6259 1.17234 11.6787 8.65319 -0.692497
lowerback -0.524566 3.53649 2.52069
upperback -6.39816 4.82297 -0.429668
thorax -6.10595 2.26061 -2.07349
lowerneck -7.4143 -6.58806 3.09055
upperneck 26.5132 -11.4932 6.53988
head 9.88829 -4.27137 0.546809
rclavicle 2.76559e-014 -1.07344e-014
rhumerus 31.0169 -2.45164 -66.6128
rradius 82.9665
rwrist -36.5748
rhand -13.8914 -32.7775
rfingers 7.12502
rthumb 12.2338 -62.3997
lclavicle 2.76559e-014 -1.07344e-014
lhumerus 20.3321 -47.5977 80.4259
lradius 130.718
lwrist 13.6566
lhand -21.5978 10.6045
lfingers 7.12502
lthumb 4.79715 40.5302
rfemur 20.6007 -22.0187 8.42539
rtibia -3.18055e-014
rfoot -18.4243 -21.0834
rtoes -2.38149
lfemur -49.3248 -6.62761 -8.45574
ltibia 42.3236
lfoot -4.73004 -0.305161
ltoes -9.29823
546
root -0.141425 14.6159 1.16067 11.4345 9.10263 -0.67516
lowerback -0.474485 3.89657 2.80144
upperback -6.36786 5.3125 -0.508171
thorax -6.04699 2.48885 -2.32997
lowerneck -7.23204 -6.9336 2.75989
upperneck 26.8833 -11.9496 6.56945
head 10.0211 -4.48933 0.56637
rclavicle -1.79279e-014 1.66979e-014
rhumerus 33.8178 -3.1181 -65.909
rradius 74.7367
rwrist -33.2493
rhand -14.0035 -32.7449
rfingers 7.12502
rthumb 12.1258 -62.3735
lclavicle -1.79279e-014 1.66979e-014
lhumerus 20.1375 -47.7111 80.3215
lradius 130.314
lwrist 13.2006
lhand -21.4393 10.4274
lfingers 7.12502
lthumb 4.95017 40.3495
rfemur 21.0281 -22.3752 8.26775
rtibia -3.18055e-015
rfoot -18.4384 -20.9002
rtoes -2.53486
lfemur -49.2669 -6.83396 -8.54731
ltibia 42.3506
lfoot -4.68656 -0.533448
ltoes -9.29818
547
root -0.144039 14.6084 1.14851 11.2144 9.38356 -0.638452
lowerback -0.426699 4.23903 3.03631
upperback -6.339 5.77593 -0.602391
thorax -5.98664 2.70633 -2.57501
lowerneck -7.10158 -7.19863 2.53047
upperneck 27.3233 -12.3185 6.58383
head 10.1835 -4.65324 0.570712
rclavicle -2.44195e-014 -9.14409e-015
rhumerus 36.5083 -3.7622 -65.3605
rradius 66.4924
rwrist -29.9902
rhand -14.2511 -32.6353
rfingers 7.12502
rthumb 11.887 -62.2779
lclavicle -2.44195e-014 -9.14409e-015
lhumerus 19.9793 -47.8296 80.1951
lradius 129.94
lwrist 12.7155
lhand -21.2717 10.2651
lfingers 7.12502
lthumb 5.11196 40.1834
rfemur 21.3666 -22.5819 8.09358
rtibia 2.54444e-014
rfoot -18.4135 -20.7423
rtoes -2.84253
lfemur -49.1581 -6.93194 -8.66368
ltibia 42.3555
lfoot -4.66391 -0.702305
ltoes -9.30816
548
root -0.146675 14.6034 1.13603 11.0196 9.50081 -0.595398
lowerback -0.372988 4.56789 3.24418
upperback -6.31548 6.21927 -0.721132
thorax -5.93157 2.91456 -2.8294
lowerneck -7.02135 -7.39063 2.40136
upperneck 27.8061 -12.6143 6.61127
head 10.3673 -4.76796 0.568562
rclavicle -2.7718e-014 -1.15295e-014
rhumerus 38.9477 -4.44911 -65.0239
rradius 58.6983
rwrist -26.9951
rhand -14.5753 -32.46
rfingers 7.12502
rthumb 11.5743 -62.1204
lclavicle -2.7718e-014 -1.15295e-014
lhumerus 19.8779 -47.9611 80.0411
lradius 129.595
lwrist 12.2222
lhand -21.0811 10.1285
lfingers 7.12502
lthumb 5.29605 40.0424
rfemur 21.6084 -22.6442 7.92945
rtibia 1.27222e-014
rfoot -18.3567 -20.6249
rtoes -3.28221
lfemur -49.0049 -6.92342 -8.78486
ltibia 42.3408
lfoot -4.66219 -0.812484
ltoes -9.32604
549
root -0.149821 14.6006 1.12315 10.8481 9.46543 -0.558542
lowerback -0.298489 4.88346 3.44265
upperback -6.30985 6.64421 -0.871894
thorax -5.90115 3.11253 -3.11304
lowerneck -6.94439 -7.51632 2.37448
upperneck 28.2867 -12.8452 6.67666
head 10.5486 -4.83796 0.570233
rclavicle 2.49475e-014 1.2921e-014
rhumerus 40.9905 -5.20287 -64.9305
rradius 51.8492
rwrist -24.448
rhand -15.0414 -32.141
rfingers 7.12502
rthumb 11.1249 -61.8261
lclavicle 2.49475e-014 1.2921e-014
lhumerus 19.8255 -48.1301 79.8597
lradius 129.303
lwrist 11.7587
lhand -20.8809 10.0707
lfingers 7.12502
lthumb 5.48933 39.9796
rfemur 21.7561 -22.5722 7.79615
rtibia -5.40694e-014
rfoot -18.2939 -20.5436
rtoes -3.7779
lfemur -48.8161 -6.81971 -8.88914
ltibia 42.3101
lfoot -4.68173 -0.861117
ltoes -9.35163
550
root -0.153976 14.6 1.10989 10.6985 9.29689 -0.538643
lowerback -0.199556 5.16727 3.6244
upperback -6.30802 7.02659 -1.03512
thorax -5.88735 3.28934 -3.40118
lowerneck -6.92553 -7.56828 2.43732
upperneck 28.7622 -12.9999 6.76912
head 10.736 -4.85895 0.573034
rclavicle -2.27111e-014 -4.77083e-015
rhumerus 42.6204 -6.06106 -65.2542
rradius 46.2811
rwrist -22.2614
rhand -15.6798 -31.5965
rfingers 7.12502
rthumb 10.509 -61.3138
lclavicle -2.27111e-014 -4.77083e-015
lhumerus 19.8497 -48.2804 79.6405
lradius 129.06
lwrist 11.3459
lhand -20.6891 10.0317
lfingers 7.12502
lthumb 5.67456 39.9358
rfemur 21.8108 -22.3848 7.71334
rtibia 3.18055e-015
rfoot -18.2227 -20.5121
rtoes -4.32111
lfemur -48.5995 -6.64213 -8.95533
ltibia 42.2611
lfoot -4.71664 -0.845441
ltoes -9.38227
551
root -0.159386 14.6016 1.09643 10.5735 9.01461 -0.538022
lowerback -0.0857459 5.40491 3.78103
upperback -6.31305 7.34723 -1.19873
thorax -5.89298 3.436 -3.67619
lowerneck -6.93285 -7.54235 2.57884
upperneck 29.2108 -13.0636 6.87971
head 10.9143 -4.8287 0.579341
rclavicle -5.54671e-014 -9.14409e-015
rhumerus 43.8287 -7.03297 -66.1388
rradius 42.1725
rwrist -20.2755
rhand -16.5026 -30.8076
rfingers 7.12502
rthumb 9.71524 -60.5636
lclavicle -5.54671e-014 -9.14409e-015
lhumerus 19.9 -48.3917 79.4202
lradius 128.881
lwrist 10.9989
lhand -20.5514 10.0273
lfingers 7.12502
lthumb 5.80749 39.9278
rfemur 21.7767 -22.1008 7.68558
rtibia 2.54444e-014
rfoot -18.1442 -20.5263
rtoes -4.87453
lfemur -48.364 -6.41614 -8.97279
ltibia 42.1907
lfoot -4.76273 -0.759986
ltoes -9.42738
552
root -0.166157 14.6055 1.08295 10.4791 8.63908 -0.550053
lowerback 0.0303961 5.58385 3.89114
upperback -6.31642 7.5882 -1.35228
thorax -5.90874 3.54529 -3.91372
lowerneck -6.99127 -7.43905 2.79497
upperneck 29.6326 -13.0333 6.98906
head 11.0865 -4.7479 0.582393
rclavicle 3.49644e-014 2.71341e-014
rhumerus 44.6138 -8.00175 -67.4588
rradius 39.6615
rwrist -18.5376
rhand -17.3869 -29.9451
rfingers 7.12502
rthumb 8.86202 -59.739
lclavicle 3.49644e-014 2.71341e-014
lhumerus 19.9726 -48.4406 79.2113
lradius 128.775
lwrist 10.7397
lhand -20.4937 10.0372
lfingers 7.12502
lthumb 5.86315 39.9361
rfemur 21.6588 -21.7406 7.70549
rtibia 6.36111e-015
rfoot -18.0572 -20.5798
rtoes -5.41682
lfemur -48.1198 -6.1687 -8.94212
ltibia 42.0941
lfoot -4.81055 -0.601815
ltoes -9.49684
553
root -0.174273 14.6114 1.06973 10.4171 8.1885 -0.575391
lowerback 0.134184 5.70291 3.95067
upperback -6.31351 7.747 -1.49247
thorax -5.92427 3.61669 -4.10631
lowerneck -7.10249 -7.26746 3.08034
upperneck 30.0238 -12.9187 7.08792
head 11.2513 -4.62291 0.578724
rclavicle 6.99971e-014 6.4605e-015
rhumerus 44.9562 -8.80811 -68.9727
rradius 38.7249
rwrist -17.2205
rhand -18.069 -29.1595
rfingers 7.12502
rthumb 8.2037 -58.9802
lclavicle 6.99971e-014 6.4605e-015
lhumerus 20.0506 -48.4303 79.0421
lradius 128.744
lwrist 10.5884
lhand -20.5196 10.0217
lfingers 7.12502
lthumb 5.8382 39.9212
rfemur 21.4677 -21.32 7.76904
rtibia 6.36111e-015
rfoot -17.9675 -20.656
rtoes -5.91879
lfemur -47.8735 -5.92159 -8.85835
ltibia 41.9701
lfoot -4.855 -0.370396
ltoes -9.57997
554
root -0.183523 14.6192 1.05683 10.3896 7.66696 -0.61398
lowerback 0.214955 5.7614 3.95036
upperback -6.30035 7.82197 -1.61171
thorax -5.93293 3.65034 -4.23948
lowerneck -7.27079 -7.03167 3.42591
upperneck 30.3891 -12.7214 7.16212
head 11.4111 -4.45696 0.564361
rclavicle -7.30324e-014 -6.70898e-015
rhumerus 44.7954 -9.15263 -70.1649
rradius 39.3425
rwrist -16.8571
rhand -18.3985 -28.6601
rfingers 7.12502
rthumb 7.88571 -58.493
lclavicle -7.30324e-014 -6.70898e-015
lhumerus 20.1129 -48.3484 78.9403
lradius 128.794
lwrist 10.5533
lhand -20.6044 9.95112
lfingers 7.12502
lthumb 5.75633 39.8529
rfemur 21.2053 -20.8416 7.87099
rtibia 0
rfoot -17.867 -20.7434
rtoes -6.38748
lfemur -47.6301 -5.68469 -8.71984
ltibia 41.8212
lfoot -4.89228 -0.0619205
ltoes -9.67239
555
root -0.19346 14.6287 1.04434 10.3985 7.07202 -0.667563
lowerback 0.264724 5.75758 3.88417
upperback -6.28228 7.81059 -1.70226
thorax -5.9388 3.64531 -4.30123
lowerneck -7.46704 -6.73178 3.82959
upperneck 30.7272 -12.4346 7.19651
head 11.5586 -4.25033 0.536346
rclavicle -1.18137e-014 -8.79622e-015
rhumerus 44.1365 -8.89189 -70.8273
rradius 41.3488
rwrist -17.715
rhand -18.3792 -28.441
rfingers 7.12502
rthumb 7.90437 -58.2732
lclavicle -1.18137e-014 -8.79622e-015
lhumerus 20.1276 -48.1907 78.9246
lradius 128.93
lwrist 10.6327
lhand -20.7306 9.82608
lfingers 7.12502
lthumb 5.63447 39.7312
rfemur 20.8729 -20.3011 8.00646
rtibia 1.59028e-014
rfoot -17.7537 -20.8299
rtoes -6.84547
lfemur -47.3929 -5.45731 -8.52755
ltibia 41.6538
lfoot -4.92081 0.324041
ltoes -9.76822
